<svg width="16" height="16" viewBox="0 0 16 16" fill="none" xmlns="http://www.w3.org/2000/svg">
<path opacity="0.4" d="M8.00356 0C3.5861 -1.74557e-06 0.00394223 3.5798 1.55988e-05 7.99827C-0.00253403 9.28664 0.307507 10.5564 0.903527 11.6985C0.960442 11.8053 1.01024 11.912 1.06716 12.0116C1.19477 12.2576 1.22033 12.5439 1.1383 12.8086C0.910048 13.4176 0.719966 14.0403 0.569157 14.673C0.569157 14.9861 0.661642 15.1711 0.996013 15.1711C1.60366 15.0347 2.20238 14.8613 2.78881 14.6516C3.04361 14.5851 3.31307 14.6026 3.55715 14.7014C3.77769 14.8153 3.97689 14.979 4.19743 15.0786H4.26858C6.7489 16.3844 9.73145 16.2973 12.1313 14.8489C14.5312 13.4005 15.9987 10.8018 16 7.99827C15.9961 3.58257 12.4182 0.00392332 8.00356 0Z" fill="#4B41F1"/>
<path d="M4.20865 9.22784C3.6554 9.22784 3.20691 8.77935 3.20691 8.2261C3.20691 7.67286 3.6554 7.22437 4.20865 7.22437C4.76189 7.22437 5.21039 7.67286 5.21039 8.2261C5.21039 8.77935 4.76189 9.22784 4.20865 9.22784Z" fill="#4B41F1"/>
<path d="M7.8261 9.22787C7.55986 9.22974 7.30398 9.1248 7.11571 8.93653C6.92744 8.74826 6.8225 8.49238 6.82437 8.22613C6.82437 7.82097 7.06843 7.4557 7.44276 7.30065C7.81708 7.1456 8.24795 7.2313 8.53444 7.5178C8.82094 7.80429 8.90664 8.23516 8.75159 8.60948C8.59654 8.98381 8.23127 9.22787 7.8261 9.22787Z" fill="#4B41F1"/>
<path d="M11.4366 9.22784C10.8833 9.22784 10.4348 8.77935 10.4348 8.2261C10.4348 7.67286 10.8833 7.22437 11.4366 7.22437C11.9898 7.22437 12.4383 7.67286 12.4383 8.2261C12.4383 8.77935 11.9898 9.22784 11.4366 9.22784Z" fill="#4B41F1"/>
</svg>
