<svg width="12" height="16" viewBox="0 0 12 16" fill="none" xmlns="http://www.w3.org/2000/svg">
<path fill-rule="evenodd" clip-rule="evenodd" d="M11.8292 3.02316L9.10586 0.166795C9.05514 0.113473 8.99476 0.0713305 8.92828 0.0428452C8.86257 0.0146946 8.79229 0.000133891 8.72131 0H1.64045C0.737994 0 0.00640869 0.767297 0.00640869 1.71381V14.2817C0.00640869 15.2283 0.737994 15.9955 1.64045 15.9955H10.3554C11.2578 15.9955 11.9894 15.2283 11.9894 14.2817V3.42762C11.9886 3.27598 11.9311 3.13074 11.8292 3.02316ZM9.26597 1.95033L10.1298 2.85637H9.26597V1.95033ZM10.3553 14.853C10.6562 14.853 10.9 14.5973 10.9 14.2817H10.9V3.9989H8.72131C8.42048 3.9989 8.17662 3.74313 8.17662 3.42762V1.14253H1.64045C1.33962 1.14253 1.09576 1.39829 1.09576 1.71381V14.2817C1.09576 14.5973 1.33962 14.853 1.64045 14.853H10.3553Z" fill="black"/>
</svg>
