<svg width="20" height="20" viewBox="0 0 20 20" fill="none" xmlns="http://www.w3.org/2000/svg">
<path d="M14.8843 3.11485H11.9413C11.2081 3.11969 10.512 2.79355 10.0474 2.22751L9.0782 0.887624C8.62137 0.316613 7.9253 -0.0110553 7.19321 0.000284957H5.11261C1.37819 0.000284957 1.05022e-05 2.19201 1.05022e-05 5.91884V9.94736C-0.00463617 10.3904 19.9956 10.3898 19.9969 9.94736V8.77607C20.0147 5.04924 18.6721 3.11485 14.8843 3.11485Z" fill="url(#paint0_linear)"/>
<path fill-rule="evenodd" clip-rule="evenodd" d="M18.8321 4.54353C19.1521 4.91761 19.3993 5.34793 19.5612 5.81243C19.8798 6.76711 20.0273 7.77037 19.9969 8.77614V14.0292C19.9956 14.4717 19.963 14.9135 19.8991 15.3513C19.7775 16.1241 19.5057 16.8656 19.0989 17.5342C18.9119 17.8571 18.6849 18.1553 18.4231 18.4215C17.2383 19.5089 15.665 20.0749 14.0574 19.9921H5.93061C4.32049 20.0743 2.74461 19.5086 1.55601 18.4215C1.2974 18.1547 1.07337 17.8566 0.889148 17.5342C0.48475 16.8661 0.218689 16.1238 0.106699 15.3513C0.0354885 14.9142 -0.000193636 14.4721 0 14.0292V8.77614C-0.000173391 8.33743 0.0235723 7.89902 0.0711327 7.46288C0.081134 7.38636 0.096135 7.31109 0.110981 7.23659C0.13573 7.11241 0.160047 6.99038 0.160047 6.86836C0.250306 6.34204 0.414958 5.83116 0.649078 5.35101C1.34261 3.86916 2.76525 3.11492 5.09481 3.11492H14.8754C16.1802 3.01401 17.4753 3.4068 18.5032 4.21522C18.6215 4.3156 18.7316 4.4254 18.8321 4.54353ZM4.97033 13.5412H15.0355H15.0533C15.2741 13.5507 15.4896 13.4717 15.6517 13.3217C15.8137 13.1716 15.9088 12.963 15.9157 12.7425C15.9282 12.5487 15.8644 12.3577 15.7379 12.2101C15.5924 12.0118 15.3618 11.8935 15.1155 11.8907H4.97033C4.51365 11.8907 4.14343 12.2602 4.14343 12.7159C4.14343 13.1717 4.51365 13.5412 4.97033 13.5412Z" fill="url(#paint1_linear)"/>
<defs>
<linearGradient id="paint0_linear" x1="0" y1="0" x2="0" y2="10.2794" gradientUnits="userSpaceOnUse">
<stop stop-color="#8643FF"/>
<stop offset="1" stop-color="#4136F1"/>
</linearGradient>
<linearGradient id="paint1_linear" x1="0" y1="3.09937" x2="0" y2="20.0001" gradientUnits="userSpaceOnUse">
<stop stop-color="#8643FF"/>
<stop offset="1" stop-color="#4136F1"/>
</linearGradient>
</defs>
</svg>
