<svg width="28" height="28" viewBox="0 0 28 28" fill="none" xmlns="http://www.w3.org/2000/svg">
<path d="M28 13.9829C28 12.7954 27.9027 11.9289 27.6921 11.0303H14V16.3899H22.037C21.875 17.7219 21 19.7277 19.0555 21.0756L19.0283 21.255L23.3575 24.5764L23.6574 24.606C26.412 22.0866 28 18.3797 28 13.9829Z" fill="#4285F4"/>
<path d="M14.3125 28C18.1093 28 21.2968 26.7778 23.625 24.6696L19.1875 21.3084C18 22.1181 16.4062 22.6834 14.3125 22.6834C10.5938 22.6834 7.43758 20.2849 6.31247 16.9697L6.14756 16.9834L1.80677 20.2681L1.75 20.4224C4.06247 24.9139 8.81248 28 14.3125 28Z" fill="#34A853"/>
<path d="M6.125 16.8231C5.82507 15.9458 5.65149 15.0057 5.65149 14.0345C5.65149 13.0631 5.82507 12.1231 6.10922 11.2458L6.10128 11.0589L1.66073 7.63647L1.51544 7.70506C0.552524 9.61642 0 11.7628 0 14.0345C0 16.3061 0.552524 18.4524 1.51544 20.3637L6.125 16.8231Z" fill="#FBBC05"/>
<path d="M13.8843 5.31652C16.6188 5.31652 18.4633 6.43176 19.5151 7.36375L23.625 3.57492C21.1009 1.3597 17.8161 0 13.8843 0C8.18865 0 3.26971 3.08602 0.875 7.57755L5.58355 11.0303C6.76485 7.7151 10.0333 5.31652 13.8843 5.31652Z" fill="#EB4335"/>
</svg>
