<svg width="16" height="16" viewBox="0 0 16 16" fill="none" xmlns="http://www.w3.org/2000/svg">
<path opacity="0.4" d="M7.8208 15.8631C5.99436 14.6756 4.29652 13.2754 2.75833 11.6881C1.67243 10.5547 0.843112 9.17092 0.333754 7.64233C-0.576351 4.66125 0.483068 1.2543 3.44091 0.24286C5.00212 -0.273237 6.70006 0.0435827 8.00566 1.0946C9.31174 0.0447581 11.0091 -0.271959 12.5704 0.24286C15.5283 1.2543 16.5948 4.66125 15.6847 7.64233C15.1795 9.16948 14.3551 10.5532 13.2743 11.6881C11.7347 13.2737 10.0371 14.6737 8.21186 15.8631L8.01277 16L7.8208 15.8631Z" fill="#FF009B"/>
<path d="M8.00872 15.9999L7.82079 15.863C5.9921 14.6756 4.2919 13.2754 2.75121 11.688C1.66016 10.5562 0.825907 9.17228 0.312415 7.64224C-0.59058 4.66116 0.46884 1.25421 3.42668 0.242771C4.98789 -0.273326 6.70823 0.0437362 8.00872 1.10355V15.9999Z" fill="#FF009B"/>
<path d="M12.9843 5.89414C12.8236 5.88324 12.6739 5.7987 12.5704 5.66032C12.4669 5.52193 12.4185 5.34186 12.4367 5.16229C12.4541 4.57083 12.1344 4.03248 11.6413 3.82301C11.3287 3.73318 11.1394 3.37678 11.2176 3.0253C11.2918 2.67948 11.5994 2.46445 11.9086 2.54229C11.9477 2.5491 11.9852 2.56399 12.0194 2.5862C13.008 2.98664 13.6481 4.06439 13.5971 5.24279C13.5955 5.4214 13.5293 5.59161 13.4138 5.71442C13.2983 5.83722 13.1433 5.90208 12.9843 5.89414Z" fill="#FF009B"/>
</svg>
