<svg width="18" height="20" viewBox="0 0 18 20" fill="none" xmlns="http://www.w3.org/2000/svg">
<path d="M0.00180549 11.9124V11.7079C0.0367213 11.0531 0.243377 10.4187 0.601265 9.86772C1.19803 9.19909 1.60828 8.38691 1.79124 7.51192C1.83597 6.84518 1.79124 6.16066 1.83597 5.48503C2.15807 2.24024 5.3701 0 8.44792 0H8.5374C11.6689 0 14.8004 2.24024 15.1404 5.48503C15.203 6.15177 15.1404 6.84518 15.1941 7.51192C15.3726 8.38844 15.7834 9.20171 16.3841 9.86772C16.7575 10.4124 16.9712 11.0495 17.0014 11.7079V11.9124C17.0069 12.7993 16.6891 13.6582 16.1067 14.3304C15.3595 15.1274 14.3439 15.624 13.2525 15.7261C10.0657 16.135 6.83912 16.135 3.65225 15.7261C2.5736 15.6157 1.57205 15.1197 0.833891 14.3304C0.269752 13.6518 -0.0260755 12.7921 0.00180549 11.9124Z" fill="url(#paint0_linear)"/>
<path opacity="0.4" d="M9.66469 17.0952C9.02945 17.0507 8.51051 17.0952 7.99157 17.0952C7.47693 17.0863 6.96312 17.14 6.46161 17.2552C6.03215 17.353 5.56689 17.5841 5.56689 18.0731C5.61196 18.5456 5.86813 18.9731 6.26477 19.2376C7.02883 19.8212 7.99167 20.0858 8.94892 19.9755C9.87941 19.9069 10.7299 19.4273 11.2662 18.6687C11.5627 18.2844 11.4951 17.735 11.1141 17.433C10.6631 17.2125 10.1674 17.097 9.66469 17.0952Z" fill="url(#paint1_linear)"/>
<defs>
<linearGradient id="paint0_linear" x1="0" y1="0" x2="0" y2="16.0328" gradientUnits="userSpaceOnUse">
<stop stop-color="#8643FF"/>
<stop offset="1" stop-color="#4136F1"/>
</linearGradient>
<linearGradient id="paint1_linear" x1="5.56689" y1="17.0754" x2="5.56689" y2="20" gradientUnits="userSpaceOnUse">
<stop stop-color="#8643FF"/>
<stop offset="1" stop-color="#4136F1"/>
</linearGradient>
</defs>
</svg>
