<svg width="24" height="28" viewBox="0 0 24 28" fill="none" xmlns="http://www.w3.org/2000/svg">
<path d="M20.427 2.1189C19.1163 0.641808 16.7471 0.00854492 13.7162 0.00854492H4.91967C4.30016 0.0085676 3.77262 0.453954 3.67553 1.05893L0.0128007 24.0278C-0.0600023 24.4807 0.294701 24.8909 0.758984 24.8909H6.18967L7.55356 16.3372L7.51123 16.6051C7.60839 16.0005 8.13137 15.5545 8.75067 15.5545H11.3313C16.401 15.5545 20.3706 13.5185 21.5302 7.62863C21.5647 7.45443 21.5945 7.28489 21.6202 7.11925C21.4739 7.04261 21.4739 7.04261 21.6202 7.11925C21.9655 4.94231 21.6179 3.46048 20.427 2.1189Z" fill="#27346A"/>
<path d="M9.63155 6.33504C9.78001 6.26514 9.9424 6.22892 10.1068 6.22902H17.0032C17.8198 6.22902 18.5815 6.28156 19.2776 6.39233C19.4723 6.42304 19.6661 6.4597 19.8586 6.50226C20.1314 6.56178 20.401 6.63463 20.6666 6.72054C21.0088 6.83354 21.3274 6.96514 21.6203 7.11925C21.9655 4.94147 21.6179 3.46048 20.427 2.1189C19.1156 0.641808 16.7471 0.00854492 13.7162 0.00854492H4.91891C4.29952 0.00854492 3.7726 0.454405 3.67553 1.05893L0.0128012 24.027C-0.0600018 24.4806 0.294701 24.8902 0.758232 24.8902H6.18967L9.0193 7.14789C9.07578 6.79388 9.3047 6.48996 9.63155 6.33504Z" fill="#27346A"/>
<path d="M21.5302 7.62852C20.3706 13.5175 16.4011 15.5544 11.3313 15.5544H8.74988C8.13058 15.5544 7.60751 16.0004 7.51129 16.605L5.81453 27.2404C5.75113 27.6368 6.06115 27.996 6.46674 27.996H11.0447C11.5864 27.9959 12.0476 27.6062 12.1323 27.0771L12.1769 26.8465L13.0397 21.4396L13.0953 21.1408C13.18 20.6117 13.6411 20.2221 14.1828 20.2219H14.868C19.3026 20.2219 22.7751 18.4405 23.7898 13.2885C24.2134 11.1354 23.9942 9.33784 22.8738 8.07522C22.5339 7.69279 22.1119 7.37695 21.6202 7.11914C21.5936 7.28562 21.5647 7.45433 21.5302 7.62852Z" fill="#2790C3"/>
<path d="M20.4067 6.64068C20.2258 6.58847 20.0433 6.54226 19.8594 6.5021C19.6668 6.46023 19.4731 6.42382 19.2784 6.39291C18.5816 6.2814 17.8205 6.22876 17.0031 6.22876H10.1076C9.94301 6.22839 9.7805 6.26493 9.63228 6.33562C9.30503 6.49008 9.07592 6.79423 9.01994 7.14848L7.55429 16.3371L7.51196 16.6049C7.60838 16.0003 8.13135 15.5544 8.75074 15.5544H11.3321C16.4018 15.5544 20.3714 13.5183 21.531 7.62847C21.5655 7.45427 21.5945 7.28547 21.6211 7.11909C21.3274 6.96582 21.0096 6.83338 20.6673 6.72112C20.5809 6.69281 20.4941 6.66599 20.4067 6.64068" fill="#1F264F"/>
</svg>
