<svg width="16" height="16" viewBox="0 0 16 16" fill="none" xmlns="http://www.w3.org/2000/svg">
<path opacity="0.4" fill-rule="evenodd" clip-rule="evenodd" d="M15.0001 11.4441V13.5441C15.0017 13.9383 14.837 14.3149 14.5465 14.5814C14.256 14.8479 13.8667 14.9796 13.4741 14.9441C11.32 14.71 9.25096 13.974 7.43306 12.7951C5.74174 11.7203 4.30779 10.2864 3.23306 8.59507C2.05004 6.76891 1.31383 4.68976 1.08406 2.52607C1.04869 2.13468 1.17945 1.74645 1.44439 1.4562C1.70934 1.16596 2.08407 1.00044 2.47706 1.00007H4.57706C5.27976 0.993153 5.87871 1.50825 5.97706 2.20407C6.06569 2.87612 6.23007 3.53598 6.46706 4.17107C6.65937 4.68268 6.53637 5.25943 6.15206 5.64807L5.26306 6.53707C6.25954 8.28955 7.71057 9.74058 9.46306 10.7371L10.3521 9.84807C10.7407 9.46376 11.3174 9.34075 11.8291 9.53307C12.4641 9.77005 13.124 9.93443 13.7961 10.0231C14.4999 10.1224 15.0177 10.7334 15.0001 11.4441Z" fill="#00A006" stroke="#00A006" stroke-linecap="round" stroke-linejoin="round"/>
</svg>
