<svg width="14" height="16" viewBox="0 0 14 16" fill="none" xmlns="http://www.w3.org/2000/svg">
<path fill-rule="evenodd" clip-rule="evenodd" d="M13.9325 11.4518L13.3345 6.49606C12.9702 4.72771 11.9391 4 10.9561 4H3.058C2.06128 4 0.995824 4.67677 0.686497 6.49606L0.0815925 11.4518C-0.41333 15.0904 1.40826 16 3.78663 16H10.2344C12.6059 16 14.3725 14.6828 13.9325 11.4518ZM4.74211 8.11886C4.36247 8.11886 4.05472 7.79305 4.05472 7.39115C4.05472 6.98924 4.36247 6.66343 4.74211 6.66343C5.12174 6.66343 5.4295 6.98924 5.4295 7.39115C5.4295 7.79305 5.12174 8.11886 4.74211 8.11886ZM8.55713 7.39115C8.55713 7.79305 8.86489 8.11886 9.24452 8.11886C9.62416 8.11886 9.93192 7.79305 9.93192 7.39115C9.93192 6.98924 9.62416 6.66343 9.24452 6.66343C8.86489 6.66343 8.55713 6.98924 8.55713 7.39115Z" fill="white"/>
<path opacity="0.4" d="M10.9791 3.81946C10.9816 3.88151 10.9697 3.9433 10.9443 4H9.79457C9.7723 3.94235 9.76051 3.88122 9.75973 3.81946C9.75973 2.28546 8.51189 1.04191 6.9726 1.04191C5.43331 1.04191 4.18547 2.28546 4.18547 3.81946C4.19602 3.87918 4.19602 3.94028 4.18547 4H3.00791C2.99736 3.94028 2.99736 3.87918 3.00791 3.81946C3.09738 1.68473 4.86 0 7.00396 0C9.14791 0 10.9105 1.68473 11 3.81946H10.9791Z" fill="white"/>
</svg>
