<svg width="44" height="15" viewBox="0 0 44 15" fill="none" xmlns="http://www.w3.org/2000/svg">
<path fill-rule="evenodd" clip-rule="evenodd" d="M31.9114 0.80583L31.4021 3.81633C29.8749 2.95571 26.3993 2.75208 26.3989 4.3372C26.3989 4.96693 27.1853 5.40001 28.1331 5.92199C29.5706 6.71361 31.3794 7.70972 31.3794 9.90633C31.3794 13.4163 27.7054 14.706 25.27 14.706C22.8353 14.706 21.2418 13.9143 21.2418 13.9143L21.7723 10.7666C23.2335 11.9662 27.661 12.3071 27.661 10.4047C27.661 9.60532 26.7894 9.13389 25.7787 8.58723C24.3842 7.83295 22.7249 6.93545 22.7249 4.83558C22.7249 0.986205 26.9306 0.19458 28.7016 0.19458C30.3399 0.19458 31.9114 0.80583 31.9114 0.80583ZM43.8189 14.4641H40.542L40.124 12.3817H35.5872L34.8433 14.4641H31.1231L36.4456 1.48945C36.4456 1.48945 36.7683 0.444705 38.093 0.444705H40.9618L43.8189 14.4641ZM12.4718 0.44508L9.06952 10.0875L8.66692 8.01108L8.66729 8.01183L7.46645 1.70733C7.46645 1.70733 7.32125 0.44508 5.77355 0.44508H0.148886L0.0828857 0.682455C0.0828857 0.682455 1.80292 1.04846 3.81592 2.28483L6.91645 14.4645H10.6348L16.3127 0.44508H12.4718ZM19.0429 14.4641H15.4741L17.7045 0.44508H21.2737L19.0429 14.4641ZM36.615 9.50508L38.4901 4.25883L39.545 9.50508H36.615Z" fill="#2566AF"/>
<path d="M10 8L8.74103 1.33452C8.74103 1.33452 8.5888 0 6.96617 0H1.0692L1 0.250966C1 0.250966 3.83432 0.856775 6.55292 3.12657C9.15236 5.29607 10 8 10 8Z" fill="#E6A540"/>
</svg>
